<svg width="16" height="15" viewBox="0 0 16 15" fill="none" xmlns="http://www.w3.org/2000/svg">
<path d="M4.12385 5.00163C4.07004 5.0553 4.02735 5.11906 3.99822 5.18926C3.96909 5.25946 3.9541 5.33471 3.9541 5.41071C3.9541 5.48671 3.96909 5.56197 3.99822 5.63216C4.02735 5.70236 4.07004 5.76612 4.12385 5.81979L8.01129 9.70723C8.05405 9.75008 8.10484 9.78408 8.16076 9.80727C8.21668 9.83047 8.27663 9.84241 8.33717 9.84241C8.3977 9.84241 8.45765 9.83047 8.51357 9.80727C8.56949 9.78408 8.62028 9.75008 8.66304 9.70723L12.5505 5.81979C12.777 5.5933 12.777 5.22813 12.5505 5.00163C12.324 4.77513 11.9588 4.77513 11.7323 5.00163L8.33948 8.39447L4.94202 4.99701C4.71552 4.77513 4.35035 4.77513 4.12385 5.00163Z" fill="#ECECEC"/>
</svg>
