<svg width="19" height="19" viewBox="0 0 19 19" fill="none" xmlns="http://www.w3.org/2000/svg">
<path d="M5.05526 6.798C4.99069 6.86241 4.93946 6.93892 4.90451 7.02316C4.86955 7.10739 4.85156 7.1977 4.85156 7.2889C4.85156 7.3801 4.86955 7.4704 4.90451 7.55464C4.93946 7.63888 4.99069 7.71539 5.05526 7.7798L9.72018 12.4447C9.7715 12.4961 9.83245 12.5369 9.89956 12.5648C9.96666 12.5926 10.0386 12.6069 10.1112 12.6069C10.1839 12.6069 10.2558 12.5926 10.3229 12.5648C10.39 12.5369 10.451 12.4961 10.5023 12.4447L15.1672 7.7798C15.439 7.508 15.439 7.0698 15.1672 6.798C14.8954 6.5262 14.4572 6.5262 14.1854 6.798L10.114 10.8694L6.03706 6.79245C5.76526 6.5262 5.32706 6.52621 5.05526 6.798Z" fill="#A2A3A4"/>
</svg>
