<svg width="13" height="13" viewBox="0 0 13 13" fill="none" xmlns="http://www.w3.org/2000/svg">
<g clip-path="url(#clip0_714_833)">
<path d="M11.9171 7.7331C11.1266 10.9044 7.91348 12.8322 4.74668 12.0417C1.57525 11.2512 -0.352564 8.03822 0.438005 4.87146C1.22853 1.70013 4.43693 -0.227685 7.60836 0.562883C10.7752 1.34878 12.7076 4.56172 11.9171 7.7331Z" fill="url(#paint0_linear_714_833)"/>
<path d="M8.99427 5.5649C9.10983 4.7791 8.51354 4.35384 7.69075 4.07187L7.95885 3.0041L7.31172 2.84231L7.05286 3.88235C6.88184 3.84075 6.70618 3.79915 6.53053 3.76217L6.78939 2.71751L6.14225 2.55573L5.87878 3.61888C5.73548 3.58652 5.59681 3.55416 5.46276 3.52181V3.51718L4.56602 3.29531L4.39499 3.98867C4.39499 3.98867 4.87572 4.09961 4.86647 4.10423C5.12995 4.16894 5.17617 4.34459 5.16693 4.48326L4.86185 5.69895C4.88034 5.70358 4.90345 5.7082 4.93118 5.72207C4.90807 5.71744 4.88496 5.71282 4.86185 5.70358L4.43659 7.40462C4.40423 7.4832 4.32103 7.60338 4.14076 7.55716C4.14538 7.5664 3.66927 7.4416 3.66927 7.4416L3.3457 8.1858L4.1916 8.39843C4.34876 8.44004 4.5013 8.47701 4.65384 8.51862L4.38574 9.59563L5.03288 9.75742L5.30098 8.68964C5.47663 8.73587 5.65228 8.78209 5.81868 8.82369L5.55521 9.88684L6.20234 10.0486L6.47044 8.97161C7.57982 9.17962 8.41185 9.09642 8.75853 8.09336C9.04049 7.28906 8.74466 6.8222 8.16224 6.51712C8.59212 6.42005 8.91107 6.13808 8.99427 5.5649V5.5649ZM7.51048 7.64498C7.31172 8.44928 5.95273 8.01477 5.51361 7.90384L5.86953 6.47552C6.30866 6.58645 7.72311 6.80371 7.51048 7.64498ZM7.71387 5.55104C7.52897 6.286 6.40111 5.91158 6.03594 5.81914L6.35951 4.52487C6.72467 4.61731 7.90338 4.78834 7.71387 5.55104Z" fill="white"/>
</g>
<defs>
<linearGradient id="paint0_linear_714_833" x1="6.17421" y1="0.38278" x2="6.17421" y2="12.2178" gradientUnits="userSpaceOnUse">
<stop stop-color="#F9AA4B"/>
<stop offset="1" stop-color="#F7931A"/>
</linearGradient>
<clipPath id="clip0_714_833">
<rect width="11.8333" height="11.8333" fill="white" transform="translate(0.260498 0.385498)"/>
</clipPath>
</defs>
</svg>
