<svg width="41" height="41" viewBox="0 0 41 41" fill="none" xmlns="http://www.w3.org/2000/svg">
<rect x="0.25" y="0.21875" width="40.6771" height="40.6771" rx="20.3385" fill="#4A4F5B"/>
<g clip-path="url(#clip0_714_918)">
<path d="M30.9809 22.8704C29.4986 28.8166 23.4741 32.4313 17.5364 30.949C11.59 29.4668 7.9753 23.4425 9.45761 17.5048C10.9398 11.5586 16.9556 7.94392 22.902 9.42624C28.8398 10.8998 32.4632 16.9241 30.9809 22.8704Z" fill="url(#paint0_linear_714_918)"/>
<path d="M25.501 18.8051C25.7177 17.3317 24.5996 16.5344 23.0569 16.0057L23.5596 14.0036L22.3462 13.7003L21.8608 15.6503C21.5402 15.5723 21.2108 15.4943 20.8815 15.425L21.3668 13.4662L20.1534 13.1629L19.6594 15.1563C19.3907 15.0956 19.1307 15.035 18.8794 14.9743V14.9656L17.198 14.5496L16.8773 15.8497C16.8773 15.8497 17.7787 16.0577 17.7614 16.0663C18.2554 16.1877 18.342 16.517 18.3247 16.777L17.7527 19.0565C17.7874 19.0651 17.8307 19.0738 17.8827 19.0998C17.8394 19.0911 17.796 19.0825 17.7527 19.0651L16.9553 22.2546C16.8947 22.4019 16.7386 22.6273 16.4006 22.5406C16.4093 22.5579 15.5166 22.3239 15.5166 22.3239L14.9099 23.7193L16.496 24.118C16.7906 24.196 17.0767 24.2653 17.3627 24.3433L16.86 26.3627L18.0734 26.6661L18.576 24.664C18.9054 24.7507 19.2347 24.8373 19.5468 24.9153L19.0527 26.9088L20.2661 27.2121L20.7688 25.1927C22.8489 25.5827 24.4089 25.4267 25.059 23.546C25.5876 22.0379 25.033 21.1625 23.9409 20.5905C24.7469 20.4085 25.345 19.8798 25.501 18.8051ZM22.7189 22.7053C22.3462 24.2133 19.7981 23.3986 18.9747 23.1906L19.6421 20.5125C20.4655 20.7205 23.1176 21.1279 22.7189 22.7053ZM23.1002 18.7791C22.7535 20.1572 20.6388 19.4551 19.9541 19.2818L20.5608 16.855C21.2455 17.0284 23.4556 17.3491 23.1002 18.7791Z" fill="white"/>
</g>
<defs>
<linearGradient id="paint0_linear_714_918" x1="20.213" y1="9.08855" x2="20.213" y2="31.2791" gradientUnits="userSpaceOnUse">
<stop stop-color="#F9AA4B"/>
<stop offset="1" stop-color="#F7931A"/>
</linearGradient>
<clipPath id="clip0_714_918">
<rect width="22.1875" height="22.1875" fill="white" transform="translate(9.125 9.09375)"/>
</clipPath>
</defs>
</svg>
