<svg width="123" height="31" viewBox="0 0 123 31" fill="none" xmlns="http://www.w3.org/2000/svg">
<g clip-path="url(#clip0_714_898)">
<rect x="0.4375" y="0.739563" width="122.031" height="29.5833" rx="7.39583" fill="#26292F"/>
<g filter="url(#filter0_d_714_898)">
<rect x="40.375" y="2.21875" width="41.4167" height="26.625" rx="5.17708" fill="#3F444E"/>
<path d="M58.5053 10.5307V16.5305H57.4185V11.5883H57.3833L55.98 12.4847V11.4887L57.4712 10.5307H58.5053ZM61.35 16.5305L59.6567 10.5307H60.8256L61.9066 14.9397H61.9623L63.1165 10.5307H64.18L65.3372 14.9427H65.3899L66.4709 10.5307H67.6398L65.9465 16.5305H64.8743L63.6732 12.3207H63.6263L62.4222 16.5305H61.35Z" fill="white"/>
</g>
<path d="M17.463 10.5306V16.5305H16.3762V11.5882H16.341L14.9377 12.4847V11.4886L16.4289 10.5306H17.463ZM21.0782 16.5305H19.045V10.5306H21.1192C21.7149 10.5306 22.2266 10.6507 22.6543 10.891C23.084 11.1293 23.414 11.472 23.6445 11.9193C23.875 12.3665 23.9902 12.9017 23.9902 13.5247C23.9902 14.1497 23.874 14.6868 23.6416 15.136C23.4111 15.5852 23.0781 15.9299 22.6426 16.1701C22.209 16.4103 21.6875 16.5305 21.0782 16.5305ZM20.1319 15.5901H21.0254C21.4434 15.5901 21.792 15.5139 22.0713 15.3615C22.3506 15.2073 22.5606 14.9778 22.7012 14.6731C22.8418 14.3665 22.9121 13.9837 22.9121 13.5247C22.9121 13.0657 22.8418 12.6849 22.7012 12.3821C22.5606 12.0775 22.3525 11.8499 22.0772 11.6995C21.8037 11.5472 21.4639 11.471 21.0577 11.471H20.1319V15.5901Z" fill="#A2A3A4"/>
<path d="M99.5239 10.5306V16.5305H98.437V11.5882H98.4018L96.9986 12.4847V11.4886L98.4897 10.5306H99.5239ZM100.696 10.5306H101.923L103.391 13.1849H103.45L104.917 10.5306H106.145L103.962 14.2922V16.5305H102.878V14.2922L100.696 10.5306Z" fill="#A2A3A4"/>
</g>
<defs>
<filter id="filter0_d_714_898" x="37.4167" y="2.21875" width="47.3334" height="32.5417" filterUnits="userSpaceOnUse" color-interpolation-filters="sRGB">
<feFlood flood-opacity="0" result="BackgroundImageFix"/>
<feColorMatrix in="SourceAlpha" type="matrix" values="0 0 0 0 0 0 0 0 0 0 0 0 0 0 0 0 0 0 127 0" result="hardAlpha"/>
<feOffset dy="2.95833"/>
<feGaussianBlur stdDeviation="1.47917"/>
<feComposite in2="hardAlpha" operator="out"/>
<feColorMatrix type="matrix" values="0 0 0 0 0 0 0 0 0 0 0 0 0 0 0 0 0 0 0.25 0"/>
<feBlend mode="normal" in2="BackgroundImageFix" result="effect1_dropShadow_714_898"/>
<feBlend mode="normal" in="SourceGraphic" in2="effect1_dropShadow_714_898" result="shape"/>
</filter>
<clipPath id="clip0_714_898">
<rect x="0.4375" y="0.739563" width="122.031" height="29.5833" rx="7.39583" fill="white"/>
</clipPath>
</defs>
</svg>
