<svg width="12" height="13" viewBox="0 0 12 13" fill="none" xmlns="http://www.w3.org/2000/svg">
<path fill-rule="evenodd" clip-rule="evenodd" d="M5.91688 11.6077C3.19374 11.6077 0.986328 9.40028 0.986328 6.67714C0.986328 3.95399 3.19374 1.74658 5.91688 1.74658C8.64003 1.74658 10.8474 3.95399 10.8474 6.67714C10.8474 9.40028 8.64003 11.6077 5.91688 11.6077ZM9.86133 6.67714C9.86133 5.63101 9.44576 4.62772 8.70603 3.88799C7.9663 3.14827 6.96302 2.73269 5.91688 2.73269C4.87075 2.73269 3.86747 3.14827 3.12774 3.88799C2.38801 4.62772 1.97244 5.63101 1.97244 6.67714C1.97244 7.72327 2.38801 8.72655 3.12774 9.46628C3.86747 10.206 4.87075 10.6216 5.91688 10.6216C6.96302 10.6216 7.9663 10.206 8.70603 9.46628C9.44576 8.72655 9.86133 7.72327 9.86133 6.67714ZM7.88911 6.18408C8.01987 6.18408 8.14528 6.23603 8.23775 6.3285C8.33022 6.42096 8.38216 6.54637 8.38216 6.67714C8.38216 6.8079 8.33022 6.93331 8.23775 7.02578C8.14528 7.11825 8.01987 7.17019 7.88911 7.17019H6.40994C5.86758 7.17019 5.42383 6.72644 5.42383 6.18408V4.21186C5.42383 4.08109 5.47578 3.95568 5.56824 3.86322C5.66071 3.77075 5.78612 3.7188 5.91688 3.7188C6.04765 3.7188 6.17306 3.77075 6.26553 3.86322C6.35799 3.95568 6.40994 4.08109 6.40994 4.21186V6.18408H7.88911Z" fill="#A2A3A4"/>
</svg>
