<svg width="41" height="42" viewBox="0 0 41 42" fill="none" xmlns="http://www.w3.org/2000/svg">
<rect x="0.25" y="0.90625" width="40.6771" height="40.6771" rx="20.3385" fill="#4A4F5B"/>
<g clip-path="url(#clip0_714_909)">
<rect x="9.125" y="9.78125" width="22.1875" height="22.1875" rx="11.0938" fill="white"/>
<path d="M20.3571 9.78125L20.2188 10.2997V25.3451L20.3571 25.4974L26.6901 21.3692L20.3571 9.78125Z" fill="#343434"/>
<path d="M20.2187 9.78125L13.7473 21.3692L20.2187 25.4974V18.1948V9.78125Z" fill="#8C8C8C"/>
<path d="M20.2974 26.5999L20.2188 26.6983V31.7328L20.2974 31.9687L26.6901 22.7239L20.2974 26.5999Z" fill="#3C3C3B"/>
<path d="M20.2187 31.9687V26.5999L13.7473 22.7239L20.2187 31.9687Z" fill="#8C8C8C"/>
<path d="M20.2188 25.4974L26.6901 21.3165L20.2188 18.1016V25.4974Z" fill="#141414"/>
<path d="M13.7473 21.3165L20.2187 25.4974V18.1016L13.7473 21.3165Z" fill="#393939"/>
</g>
<defs>
<clipPath id="clip0_714_909">
<rect x="9.125" y="9.78125" width="22.1875" height="22.1875" rx="11.0938" fill="white"/>
</clipPath>
</defs>
</svg>
