<svg width="41" height="42" viewBox="0 0 41 42" fill="none" xmlns="http://www.w3.org/2000/svg">
<rect x="0.25" y="0.59375" width="40.6771" height="40.6771" rx="20.3385" fill="#4A4F5B"/>
<g clip-path="url(#clip0_714_927)">
<path d="M26.4626 19.1924C26.4626 19.7702 24.3936 20.2537 21.6201 20.3758L21.622 20.3767C21.1602 20.4017 20.6977 20.4119 20.2353 20.4072C19.5151 20.4072 19.0057 20.3859 18.8264 20.3767C16.0474 20.2547 13.9728 19.7712 13.9728 19.1924C13.9728 18.6137 16.0474 18.1293 18.8264 18.0054V19.895C19.0076 19.9089 19.528 19.9394 20.2473 19.9394C21.1098 19.9394 21.5416 19.9024 21.6201 19.896V18.0073C24.3936 18.1302 26.4626 18.6146 26.4626 19.1924ZM31.2606 19.6972L20.3333 30.1679C20.3023 30.1975 20.2611 30.2141 20.2182 30.2141C20.1753 30.2141 20.134 30.1975 20.1031 30.1679L9.17665 19.6972C9.151 19.6731 9.13376 19.6415 9.12744 19.6068C9.12111 19.5722 9.12605 19.5365 9.14152 19.5049L13.187 11.0062C13.2004 10.9776 13.2217 10.9535 13.2485 10.9368C13.2752 10.9201 13.3062 10.9114 13.3377 10.9119H27.1014C27.1325 10.912 27.163 10.9211 27.1892 10.9379C27.2154 10.9548 27.2363 10.9788 27.2493 11.0071L31.2957 19.5049C31.3112 19.5365 31.3161 19.5722 31.3098 19.6068C31.3035 19.6415 31.2862 19.6731 31.2606 19.6972ZM27.1208 19.3237C27.1208 18.5786 24.7615 17.9555 21.6229 17.8103V16.1204H25.4928V13.5411H14.9565V16.1204H18.8254V17.8113C15.6804 17.9555 13.3155 18.5786 13.3155 19.3246C13.3155 20.0716 15.6804 20.6929 18.8254 20.8389V26.2582H21.622V20.8371C24.7597 20.6919 27.1208 20.0698 27.1208 19.3237Z" fill="white"/>
</g>
<defs>
<clipPath id="clip0_714_927">
<rect width="22.1875" height="22.1875" fill="white" transform="translate(9.125 9.46875)"/>
</clipPath>
</defs>
</svg>
