<svg width="13" height="13" viewBox="0 0 13 13" fill="none" xmlns="http://www.w3.org/2000/svg">
<path d="M11.1161 5.90493C11.3498 6.21062 11.3498 6.62331 11.1161 6.92851C10.38 7.88948 8.61386 9.86811 6.5519 9.86811C4.48994 9.86811 2.72382 7.88948 1.98769 6.92851C1.87398 6.78214 1.81226 6.60207 1.81226 6.41672C1.81226 6.23137 1.87398 6.0513 1.98769 5.90493C2.72382 4.94396 4.48994 2.96533 6.5519 2.96533C8.61386 2.96533 10.38 4.94396 11.1161 5.90493V5.90493Z" stroke="#A2A3A4" stroke-width="0.739583" stroke-linecap="round" stroke-linejoin="round"/>
<path d="M6.55192 7.89589C7.36884 7.89589 8.03109 7.23365 8.03109 6.41673C8.03109 5.59981 7.36884 4.93756 6.55192 4.93756C5.735 4.93756 5.07275 5.59981 5.07275 6.41673C5.07275 7.23365 5.735 7.89589 6.55192 7.89589Z" stroke="#A2A3A4" stroke-width="0.739583" stroke-linecap="round" stroke-linejoin="round"/>
</svg>
