<svg width="8" height="17" viewBox="0 0 8 17" fill="none" xmlns="http://www.w3.org/2000/svg">
<path d="M5.2105 4.47222C6.29973 4.47222 7.18273 3.58922 7.18273 2.49999C7.18273 1.41076 6.29973 0.527771 5.2105 0.527771C4.12128 0.527771 3.23828 1.41076 3.23828 2.49999C3.23828 3.58922 4.12128 4.47222 5.2105 4.47222Z" fill="#B3B3B3"/>
<path d="M7.22706 12.4745C7.17258 12.4379 7.11132 12.4125 7.04689 12.3998C6.98246 12.3872 6.91615 12.3875 6.85185 12.4008C6.78755 12.4141 6.72656 12.4402 6.67245 12.4774C6.61835 12.5146 6.57223 12.5622 6.53679 12.6175C6.06014 13.3234 5.47624 13.9506 4.80616 14.4763C4.64345 14.5996 4.03699 15.068 3.7806 14.9694C3.6031 14.9152 3.70665 14.5651 3.74116 14.4172L4.00248 13.6431C4.11095 13.3275 5.99935 7.72641 6.20644 7.08543C6.51213 6.14863 6.37901 5.22661 4.98366 5.44849C4.60401 5.48793 0.753243 5.98592 0.684215 5.99085C0.619466 5.99506 0.55618 6.01198 0.497971 6.04065C0.439761 6.06931 0.387768 6.10916 0.344959 6.15792C0.302151 6.20668 0.269366 6.2634 0.248475 6.32483C0.227585 6.38626 0.219 6.45121 0.223208 6.51595C0.227417 6.5807 0.244338 6.64399 0.273005 6.7022C0.301671 6.76041 0.341522 6.8124 0.390283 6.85521C0.439043 6.89802 0.495758 6.9308 0.557189 6.95169C0.618619 6.97258 0.683563 6.98117 0.748312 6.97696C0.748312 6.97696 2.22748 6.78467 2.39019 6.76988C2.47353 6.76174 2.55744 6.77789 2.63181 6.81639C2.70618 6.85488 2.76781 6.91408 2.80928 6.98682C2.89862 7.263 2.88638 7.562 2.77477 7.82995C2.64658 8.323 0.620118 14.0326 0.556021 14.3629C0.487273 14.6394 0.50636 14.9304 0.61063 15.1955C0.714899 15.4606 0.89917 15.6866 1.13783 15.8421C1.58577 16.1407 2.11913 16.2844 2.65644 16.2513C3.17886 16.245 3.69553 16.1413 4.17998 15.9456C5.40769 15.4526 6.68963 14.1411 7.36512 13.1106C7.42329 13.0059 7.44135 12.8836 7.41595 12.7665C7.39054 12.6495 7.3234 12.5457 7.22706 12.4745V12.4745Z" fill="#B3B3B3"/>
</svg>
