<svg width="19" height="18" viewBox="0 0 19 18" fill="none" xmlns="http://www.w3.org/2000/svg">
<path d="M3.67519 8.01246L8.85228 2.83538C8.99097 2.69672 9.17905 2.61884 9.37516 2.61884C9.57127 2.61884 9.75936 2.69672 9.89805 2.83538L15.0751 8.01246C15.2138 8.15112 15.2918 8.33921 15.2918 8.53534V15.625C15.2918 15.8211 15.2139 16.0093 15.0752 16.148C14.9365 16.2867 14.7484 16.3646 14.5522 16.3646H10.8543V11.1875H7.896V16.3646H4.19808C4.00193 16.3646 3.81381 16.2867 3.67512 16.148C3.53642 16.0093 3.4585 15.8211 3.4585 15.625V8.53534C3.45854 8.33921 3.53649 8.15112 3.67519 8.01246Z" fill="white"/>
</svg>
