<svg width="19" height="19" viewBox="0 0 19 19" fill="none" xmlns="http://www.w3.org/2000/svg">
<path d="M2.4585 16.2511C2.4585 16.3688 2.50525 16.4817 2.58847 16.5649C2.67169 16.6481 2.78456 16.6949 2.90225 16.6949H11.0655C11.1832 16.6949 11.296 16.6481 11.3793 16.5649C11.4625 16.4817 11.5092 16.3688 11.5092 16.2511V14.8426C11.5092 14.1697 10.9616 13.6223 10.2889 13.6223H10.097V12.2263C10.097 12.1086 10.0502 11.9957 9.96702 11.9125C9.8838 11.8293 9.77093 11.7825 9.65324 11.7825H4.31426C4.19657 11.7825 4.0837 11.8293 4.00048 11.9125C3.91726 11.9957 3.87051 12.1086 3.87051 12.2263V13.6223H3.67881C3.35527 13.6227 3.04508 13.7514 2.81631 13.9801C2.58753 14.2089 2.45885 14.5191 2.4585 14.8426V16.2511ZM4.75801 12.67H9.20949V13.6223H4.75801V12.67ZM3.346 14.8426C3.346 14.6592 3.49532 14.5098 3.67881 14.5098H10.2889C10.4724 14.5098 10.6217 14.6592 10.6217 14.8426V15.8074H3.346V14.8426ZM16.6947 13.1009C16.874 13.0925 17.0498 13.0485 17.212 12.9715C17.3741 12.8946 17.5194 12.7862 17.6394 12.6527C17.8664 12.4017 17.9923 12.0755 17.9929 11.7371C17.9926 11.5462 17.9525 11.3575 17.8752 11.183C17.7978 11.0084 17.685 10.852 17.5438 10.7235L13.1975 6.82275L14.724 5.13317C14.8673 4.97404 14.9416 4.76458 14.9307 4.55072C14.9198 4.33686 14.8246 4.13604 14.6658 3.99229L11.7229 1.33379C11.6446 1.26199 11.5527 1.20664 11.4526 1.171C11.3525 1.13537 11.2463 1.12018 11.1402 1.12633C11.0342 1.1314 10.9303 1.15744 10.8345 1.20295C10.7386 1.24847 10.6527 1.31254 10.5818 1.39147L5.64773 6.85359C5.57633 6.93216 5.52123 7.02411 5.48562 7.12413C5.45001 7.22414 5.4346 7.33022 5.44027 7.43623C5.45137 7.65168 5.54544 7.85003 5.70542 7.99469L8.64859 10.6532C8.72713 10.7246 8.81908 10.7798 8.9191 10.8154C9.01912 10.851 9.12522 10.8664 9.23123 10.8607C9.3372 10.8555 9.44111 10.8294 9.53693 10.7839C9.63275 10.7383 9.71859 10.6742 9.78947 10.5953L11.3674 8.84869L15.7113 12.7493C15.8438 12.87 15.9989 12.9633 16.1677 13.0237C16.3365 13.084 16.5156 13.1103 16.6947 13.1009ZM11.008 7.92236C11.0069 7.92392 11.0053 7.92458 11.0042 7.92591C11.0031 7.92724 11.0025 7.9288 11.0013 7.92991L9.18441 9.9412L6.35972 7.38964L11.1871 2.04556L14.0117 4.59712L11.008 7.92281V7.92236ZM11.9623 8.18995L12.6026 7.48128L16.9485 11.3818C17.0481 11.4726 17.1054 11.6019 17.1054 11.7371C17.1047 11.8596 17.0573 11.9773 16.9728 12.0661C16.8883 12.1549 16.7731 12.2081 16.6507 12.2148C16.5238 12.2203 16.3998 12.1756 16.3057 12.0903L11.9623 8.18995Z" fill="#A2A3A4"/>
</svg>
