<svg width="353" height="181" viewBox="0 0 353 181" fill="none" xmlns="http://www.w3.org/2000/svg">
<rect x="139.652" y="52.1603" width="26.8117" height="112.059" rx="7.56227" fill="white" fill-opacity="0.1"/>
<path d="M52.6834 134.365C40.011 151.335 5.0791 166.745 5.0791 166.745H352.083C352.083 166.745 316.303 154.006 301.665 151.995C286.214 149.984 266.698 147.973 251.247 138.587C236.609 129.2 216.279 83.8315 200.828 80.4794C186.191 77.1272 165.861 97.0198 151.223 97.6902C135.773 99.0311 115.443 38.6923 100.805 40.7036C85.3542 42.7149 78.5792 110.342 52.6834 134.365Z" fill="url(#paint0_linear_714_897)"/>
<path d="M0.78125 166.652C0.78125 166.652 33.8776 159.379 57.5317 128.304C84.7927 92.4906 85.354 42.6488 100.805 40.6379C115.442 38.6271 135.772 98.9529 151.223 97.6124C165.861 96.9421 186.191 77.0177 200.828 80.3692C216.279 83.7206 236.609 129.116 251.247 138.5C266.697 147.884 286.214 149.895 301.665 151.906C316.303 153.916 352.083 166.652 352.083 166.652" stroke="url(#paint1_linear_714_897)" stroke-width="2.74992"/>
<circle cx="152.714" cy="96.8465" r="4.81236" fill="#3498DB"/>
<circle cx="152.714" cy="96.8465" r="3.78114" stroke="white" stroke-opacity="0.8" stroke-width="2.06244"/>
<rect x="104.591" y="39.0982" width="96.9346" height="28.8741" rx="8.93723" fill="#21A8FF"/>
<path d="M127.501 49.0356V55.0355H126.414V50.0932H126.379L124.976 50.9897V49.9936L126.467 49.0356H127.501ZM129.244 55.0355L131.796 49.9848V49.9438H128.834V49.0356H132.921V49.9643L130.372 55.0355H129.244ZM133.5 55.0999C133.322 55.0999 133.17 55.0374 133.043 54.9124C132.916 54.7874 132.854 54.6351 132.855 54.4554C132.854 54.2796 132.916 54.1292 133.043 54.0042C133.17 53.8792 133.322 53.8167 133.5 53.8167C133.672 53.8167 133.821 53.8792 133.948 54.0042C134.077 54.1292 134.143 54.2796 134.144 54.4554C134.143 54.5745 134.111 54.6829 134.051 54.7806C133.992 54.8782 133.914 54.9564 133.816 55.015C133.721 55.0716 133.615 55.0999 133.5 55.0999ZM137.212 55.1497C136.729 55.1497 136.315 55.0276 135.97 54.7835C135.626 54.5374 135.361 54.1829 135.176 53.7201C134.992 53.2552 134.9 52.6957 134.9 52.0414C134.902 51.3871 134.995 50.8305 135.179 50.3715C135.364 49.9106 135.629 49.5591 135.973 49.3169C136.318 49.0747 136.731 48.9536 137.212 48.9536C137.692 48.9536 138.105 49.0747 138.451 49.3169C138.797 49.5591 139.061 49.9106 139.245 50.3715C139.43 50.8325 139.523 51.3891 139.523 52.0414C139.523 52.6976 139.43 53.2582 139.245 53.723C139.061 54.1859 138.797 54.5394 138.451 54.7835C138.107 55.0276 137.694 55.1497 137.212 55.1497ZM137.212 54.2328C137.587 54.2328 137.883 54.0482 138.099 53.6791C138.318 53.308 138.428 52.7621 138.428 52.0414C138.428 51.5649 138.378 51.1645 138.278 50.8403C138.179 50.5161 138.038 50.2719 137.856 50.1079C137.675 49.9419 137.46 49.8589 137.212 49.8589C136.839 49.8589 136.544 50.0444 136.327 50.4155C136.11 50.7846 136.001 51.3266 135.999 52.0414C135.997 52.5199 136.045 52.9222 136.142 53.2484C136.242 53.5746 136.383 53.8207 136.564 53.9867C136.746 54.1507 136.962 54.2328 137.212 54.2328ZM140.555 55.0355L143.107 49.9848V49.9438H140.145V49.0356H144.232V49.9643L141.683 55.0355H140.555Z" fill="white"/>
<path d="M157.343 55.7854V48.2857H157.823V55.7854H157.343ZM158.728 50.685C158.701 50.4292 158.586 50.2299 158.383 50.0874C158.181 49.9448 157.92 49.8735 157.597 49.8735C157.371 49.8735 157.177 49.9077 157.014 49.976C156.852 50.0444 156.728 50.1372 156.642 50.2544C156.556 50.3715 156.512 50.5053 156.511 50.6557C156.511 50.7807 156.539 50.8891 156.595 50.9809C156.654 51.0727 156.733 51.1508 156.833 51.2153C156.932 51.2778 157.043 51.3305 157.164 51.3735C157.285 51.4164 157.407 51.4526 157.53 51.4819L158.093 51.6225C158.319 51.6752 158.537 51.7465 158.746 51.8363C158.957 51.9262 159.145 52.0395 159.311 52.1762C159.479 52.3129 159.612 52.4779 159.71 52.6713C159.807 52.8646 159.856 53.0912 159.856 53.3509C159.856 53.7025 159.766 54.0121 159.587 54.2796C159.407 54.5452 159.147 54.7532 158.807 54.9036C158.469 55.0521 158.06 55.1263 157.58 55.1263C157.113 55.1263 156.708 55.054 156.364 54.9095C156.022 54.765 155.755 54.554 155.561 54.2767C155.37 53.9994 155.266 53.6615 155.251 53.2631H156.32C156.336 53.472 156.4 53.6459 156.513 53.7845C156.627 53.9232 156.774 54.0267 156.956 54.0951C157.139 54.1634 157.344 54.1976 157.571 54.1976C157.807 54.1976 158.014 54.1624 158.192 54.0921C158.372 54.0199 158.512 53.9203 158.614 53.7933C158.716 53.6644 158.767 53.514 158.769 53.3422C158.767 53.1859 158.721 53.057 158.632 52.9554C158.542 52.8519 158.416 52.766 158.254 52.6976C158.093 52.6273 157.906 52.5648 157.691 52.5101L157.009 52.3344C156.514 52.2074 156.124 52.015 155.837 51.7572C155.552 51.4975 155.409 51.1528 155.409 50.7231C155.409 50.3696 155.505 50.06 155.696 49.7944C155.889 49.5288 156.152 49.3227 156.484 49.1763C156.816 49.0278 157.192 48.9536 157.612 48.9536C158.038 48.9536 158.411 49.0278 158.731 49.1763C159.053 49.3227 159.306 49.5268 159.49 49.7885C159.674 50.0483 159.768 50.3471 159.774 50.685H158.728ZM160.766 55.0355V54.2503L162.849 52.2084C163.049 52.0072 163.215 51.8285 163.347 51.6723C163.48 51.516 163.58 51.3647 163.646 51.2182C163.713 51.0717 163.746 50.9155 163.746 50.7495C163.746 50.56 163.703 50.3979 163.617 50.2631C163.531 50.1264 163.413 50.021 163.263 49.9467C163.112 49.8725 162.941 49.8354 162.75 49.8354C162.553 49.8354 162.38 49.8764 162.231 49.9585C162.083 50.0385 161.968 50.1528 161.886 50.3012C161.806 50.4497 161.765 50.6264 161.765 50.8315H160.731C160.731 50.4506 160.818 50.1196 160.992 49.8384C161.166 49.5571 161.405 49.3393 161.71 49.185C162.016 49.0308 162.368 48.9536 162.764 48.9536C163.167 48.9536 163.52 49.0288 163.825 49.1792C164.13 49.3296 164.366 49.5356 164.534 49.7973C164.704 50.059 164.789 50.3579 164.789 50.6938C164.789 50.9184 164.746 51.1391 164.66 51.3559C164.574 51.5727 164.423 51.8129 164.206 52.0766C163.991 52.3402 163.689 52.6596 163.301 53.0345L162.266 54.0863V54.1273H164.88V55.0355H160.766ZM167.973 48.9536C168.26 48.9556 168.54 49.0063 168.811 49.106C169.085 49.2036 169.331 49.3638 169.549 49.5864C169.768 49.8071 169.942 50.103 170.071 50.4741C170.2 50.8452 170.264 51.3041 170.264 51.851C170.266 52.3666 170.212 52.8275 170.1 53.2338C169.991 53.638 169.834 53.9798 169.629 54.2591C169.423 54.5384 169.176 54.7513 168.887 54.8978C168.598 55.0443 168.273 55.1175 167.912 55.1175C167.533 55.1175 167.197 55.0433 166.904 54.8948C166.613 54.7464 166.378 54.5433 166.198 54.2855C166.018 54.0277 165.908 53.7328 165.867 53.4007H166.936C166.991 53.639 167.102 53.8285 167.27 53.9691C167.44 54.1078 167.654 54.1771 167.912 54.1771C168.328 54.1771 168.648 53.9964 168.873 53.6351C169.097 53.2738 169.21 52.7719 169.21 52.1293H169.169C169.073 52.3012 168.949 52.4496 168.797 52.5746C168.644 52.6976 168.471 52.7924 168.278 52.8588C168.087 52.9252 167.883 52.9584 167.669 52.9584C167.317 52.9584 167.001 52.8744 166.719 52.7064C166.44 52.5385 166.218 52.308 166.054 52.015C165.892 51.7221 165.81 51.3871 165.808 51.0102C165.808 50.6196 165.898 50.269 166.078 49.9585C166.259 49.646 166.512 49.3999 166.837 49.2202C167.161 49.0386 167.54 48.9497 167.973 48.9536ZM167.976 49.8325C167.765 49.8325 167.575 49.8842 167.405 49.9878C167.237 50.0893 167.104 50.228 167.007 50.4038C166.911 50.5776 166.863 50.7719 166.863 50.9868C166.865 51.1996 166.913 51.393 167.007 51.5668C167.102 51.7406 167.232 51.8783 167.396 51.9799C167.562 52.0814 167.752 52.1322 167.965 52.1322C168.123 52.1322 168.27 52.102 168.407 52.0414C168.544 51.9809 168.663 51.8969 168.764 51.7895C168.868 51.6801 168.948 51.5561 169.005 51.4174C169.063 51.2787 169.091 51.1323 169.089 50.978C169.089 50.7729 169.041 50.5834 168.943 50.4096C168.847 50.2358 168.715 50.0962 168.548 49.9907C168.382 49.8852 168.191 49.8325 167.976 49.8325ZM172.263 54.2152L172.225 54.5374C172.198 54.7835 172.149 55.0335 172.078 55.2874C172.01 55.5433 171.938 55.7786 171.862 55.9934C171.785 56.2083 171.724 56.3772 171.677 56.5003H170.962C170.99 56.3811 171.027 56.219 171.074 56.0139C171.122 55.8089 171.169 55.5784 171.214 55.3226C171.259 55.0667 171.289 54.807 171.305 54.5433L171.326 54.2152H172.263ZM173.331 53.9222V53.058L175.877 49.0356H176.597V50.2661H176.158L174.444 52.9818V53.0287H177.998V53.9222H173.331ZM176.193 55.0355V53.6585L176.205 53.2718V49.0356H177.23V55.0355H176.193ZM181.02 55.1175C180.629 55.1175 180.279 55.0443 179.971 54.8978C179.662 54.7493 179.417 54.5462 179.235 54.2884C179.056 54.0306 178.96 53.7357 178.948 53.4037H180.003C180.023 53.6498 180.129 53.8509 180.322 54.0072C180.516 54.1615 180.748 54.2386 181.02 54.2386C181.232 54.2386 181.422 54.1898 181.588 54.0921C181.754 53.9945 181.885 53.8587 181.98 53.6849C182.076 53.5111 182.123 53.3129 182.121 53.0902C182.123 52.8637 182.075 52.6625 181.978 52.4867C181.88 52.3109 181.746 52.1732 181.576 52.0736C181.406 51.9721 181.211 51.9213 180.99 51.9213C180.811 51.9193 180.634 51.9525 180.46 52.0209C180.286 52.0893 180.148 52.1791 180.047 52.2904L179.066 52.1293L179.379 49.0356H182.859V49.9438H180.278L180.106 51.5346H180.141C180.252 51.4037 180.409 51.2953 180.612 51.2094C180.815 51.1215 181.038 51.0776 181.28 51.0776C181.644 51.0776 181.968 51.1635 182.253 51.3354C182.538 51.5053 182.763 51.7397 182.927 52.0385C183.091 52.3373 183.173 52.6791 183.173 53.0638C183.173 53.4603 183.081 53.8138 182.897 54.1244C182.716 54.4329 182.463 54.6761 182.139 54.8538C181.816 55.0296 181.443 55.1175 181.02 55.1175ZM186.351 55.1175C186.064 55.1155 185.784 55.0657 185.511 54.9681C185.237 54.8685 184.991 54.7073 184.772 54.4847C184.554 54.2601 184.38 53.9623 184.251 53.5912C184.122 53.2181 184.059 52.7562 184.06 52.2055C184.06 51.6918 184.115 51.2338 184.225 50.8315C184.334 50.4292 184.491 50.0893 184.696 49.812C184.901 49.5327 185.148 49.3198 185.437 49.1733C185.728 49.0269 186.054 48.9536 186.413 48.9536C186.79 48.9536 187.124 49.0278 187.415 49.1763C187.708 49.3247 187.944 49.5278 188.124 49.7856C188.304 50.0415 188.415 50.3305 188.458 50.6528H187.389C187.334 50.4223 187.222 50.2387 187.052 50.102C186.884 49.9633 186.671 49.894 186.413 49.894C185.997 49.894 185.677 50.0747 185.452 50.436C185.229 50.7973 185.117 51.2934 185.115 51.9242H185.156C185.252 51.7524 185.376 51.6049 185.528 51.4819C185.681 51.3588 185.852 51.2641 186.044 51.1977C186.237 51.1293 186.441 51.0951 186.656 51.0951C187.008 51.0951 187.323 51.1791 187.602 51.3471C187.884 51.5151 188.106 51.7465 188.27 52.0414C188.434 52.3344 188.515 52.6703 188.513 53.0492C188.515 53.4437 188.426 53.7982 188.244 54.1126C188.062 54.4251 187.809 54.6712 187.485 54.8509C187.161 55.0306 186.783 55.1194 186.351 55.1175ZM186.346 54.2386C186.558 54.2386 186.749 54.1869 186.917 54.0833C187.085 53.9798 187.218 53.8402 187.315 53.6644C187.413 53.4886 187.461 53.2914 187.459 53.0726C187.461 52.8578 187.414 52.6635 187.318 52.4896C187.224 52.3158 187.095 52.1781 186.929 52.0766C186.763 51.975 186.573 51.9242 186.36 51.9242C186.202 51.9242 186.055 51.9545 185.918 52.015C185.781 52.0756 185.662 52.1596 185.56 52.267C185.459 52.3725 185.379 52.4955 185.32 52.6361C185.264 52.7748 185.234 52.9232 185.232 53.0814C185.234 53.2904 185.283 53.4828 185.379 53.6585C185.475 53.8343 185.606 53.9749 185.774 54.0804C185.942 54.1859 186.133 54.2386 186.346 54.2386Z" fill="black"/>
<path d="M153.058 76.2221L147.7 66.9411L158.416 66.9411L153.058 76.2221Z" fill="#21A8FF"/>
<path opacity="0.4" d="M15.6087 7.69115L15.6087 173.599L345.422 173.599" stroke="#B3B3B3" stroke-width="0.801489"/>
<defs>
<linearGradient id="paint0_linear_714_897" x1="178.839" y1="-9.02535" x2="179.891" y2="162.838" gradientUnits="userSpaceOnUse">
<stop stop-color="#9DD8FF" stop-opacity="0.63"/>
<stop offset="1" stop-color="#009AFF" stop-opacity="0"/>
</linearGradient>
<linearGradient id="paint1_linear_714_897" x1="151.461" y1="19.3127" x2="149.858" y2="159.974" gradientUnits="userSpaceOnUse">
<stop offset="0.220999" stop-color="#81C8F7"/>
<stop offset="1" stop-color="#3498DB" stop-opacity="0"/>
</linearGradient>
</defs>
</svg>
