<svg width="19" height="19" viewBox="0 0 19 19" fill="none" xmlns="http://www.w3.org/2000/svg">
<path d="M16.3234 8.62161L16.3199 8.60774L14.375 3.66582C14.2884 3.38674 14.0301 3.19434 13.7371 3.19434H5.85364C5.55896 3.19434 5.29722 3.39021 5.21401 3.67275L3.39568 8.5644L3.39048 8.57654L3.38701 8.5904C3.36448 8.67534 3.35754 8.76201 3.36968 8.84695C3.36794 8.87468 3.36621 8.90242 3.36621 8.93015V15.2727C3.36667 15.552 3.47785 15.8198 3.6754 16.0174C3.87295 16.2149 4.14074 16.3261 4.42012 16.3266H15.292C15.8727 16.3266 16.3459 15.8533 16.3476 15.2727V8.93015C16.3476 8.90762 16.3476 8.88508 16.3459 8.86602C16.3528 8.78108 16.3459 8.69961 16.3234 8.62161ZM11.196 7.87624L11.1908 8.14839C11.1769 8.92668 10.6395 9.45017 9.85432 9.45017C9.47124 9.45017 9.14189 9.3271 8.90442 9.09309C8.66694 8.85908 8.53694 8.5332 8.53 8.14839L8.5248 7.87624H4.95747L6.33552 4.52559H13.2552L14.6714 7.87624H11.196ZM4.69573 9.20749H7.42236C7.84358 10.1973 8.73974 10.7814 9.85605 10.7814C10.4402 10.7814 10.9828 10.6185 11.4213 10.3099C11.8061 10.0395 12.106 9.66165 12.3001 9.20749H15.0129V14.9953H4.69573V9.20749Z" fill="#A2A3A4"/>
<circle cx="13.922" cy="4.21354" r="2.58854" fill="#F8961C"/>
</svg>
