<svg width="30" height="31" viewBox="0 0 30 31" fill="none" xmlns="http://www.w3.org/2000/svg">
<path d="M17.4985 19.7613C17.4448 19.8151 17.3811 19.8578 17.3109 19.8869C17.2407 19.916 17.1654 19.931 17.0894 19.931C17.0134 19.931 16.9382 19.916 16.868 19.8869C16.7978 19.8578 16.734 19.8151 16.6803 19.7613L12.7929 15.8738C12.75 15.8311 12.716 15.7803 12.6929 15.7244C12.6697 15.6684 12.6577 15.6085 12.6577 15.548C12.6577 15.4874 12.6697 15.4275 12.6929 15.3716C12.716 15.3156 12.75 15.2649 12.7929 15.2221L16.6803 11.3347C16.9068 11.1082 17.272 11.1082 17.4985 11.3347C17.725 11.5612 17.725 11.9263 17.4985 12.1528L14.1057 15.5457L17.5031 18.9431C17.725 19.1696 17.725 19.5348 17.4985 19.7613Z" fill="#959799" fill-opacity="0.5"/>
<rect x="-0.369792" y="0.369792" width="28.8438" height="28.8438" rx="9.24479" transform="matrix(-1 0 0 1 29.0209 0.979248)" stroke="#959799" stroke-opacity="0.5" stroke-width="0.739583"/>
</svg>
