<svg width="199" height="43" viewBox="0 0 199 43" fill="none" xmlns="http://www.w3.org/2000/svg">
<rect x="0.5" y="0.59375" width="41.4167" height="41.4167" rx="10.0743" fill="white"/>
<path d="M22.4123 30.4696C21.7941 30.4696 21.293 29.9684 21.293 29.3502V13.6791C21.293 13.0609 21.7941 12.5597 22.4123 12.5597H28.359C29.7174 12.5597 30.8747 12.8191 31.8308 13.338C32.7869 13.851 33.5157 14.5652 34.0171 15.4805C34.5243 16.39 34.7779 17.4394 34.7779 18.6288C34.7779 19.8181 34.5214 20.8675 34.0083 21.777C33.4953 22.6865 32.7519 23.3948 31.7783 23.9021C30.8105 24.4093 29.6387 24.6629 28.2628 24.6629H24.8784C24.2602 24.6629 23.7591 24.1617 23.7591 23.5435V22.7477C23.7591 22.1295 24.2602 21.6283 24.8784 21.6283H27.6506C28.3794 21.6283 28.9799 21.503 29.4521 21.2523C29.9302 20.9958 30.2858 20.6431 30.519 20.1941C30.7581 19.7394 30.8776 19.2176 30.8776 18.6288C30.8776 18.0341 30.7581 17.5152 30.519 17.0721C30.2858 16.6232 29.9302 16.2763 29.4521 16.0315C28.9741 15.7808 28.3677 15.6554 27.6331 15.6554H26.199C25.5807 15.6554 25.0796 16.1566 25.0796 16.7748V29.3502C25.0796 29.9684 24.5784 30.4696 23.9602 30.4696H22.4123Z" fill="black"/>
<mask id="path-3-outside-1_133_320" maskUnits="userSpaceOnUse" x="6.21631" y="11" width="19" height="20" fill="black">
<rect fill="white" x="6.21631" y="11" width="19" height="20"/>
<path d="M23.258 22.8538C24.1213 23.0852 24.6464 23.9819 24.2637 24.7895C23.5745 26.244 22.5012 27.4955 21.1464 28.4007C19.34 29.6077 17.1564 30.1169 15.0024 29.8333C12.8484 29.5497 10.871 28.4928 9.43857 26.8594C8.00611 25.226 7.21631 23.1275 7.21631 20.955C7.21631 18.7824 8.00611 16.684 9.43857 15.0505C10.871 13.4171 12.8484 12.3602 15.0024 12.0766C17.1564 11.793 19.34 12.3022 21.1464 13.5092C22.5012 14.4144 23.5745 15.6659 24.2637 17.1204C24.6464 17.928 24.1213 18.8248 23.258 19.0561V19.0561C22.3948 19.2874 21.5252 18.7558 21.062 17.9914C20.6319 17.2817 20.0491 16.6684 19.3483 16.2001C18.1948 15.4294 16.8003 15.1042 15.4248 15.2853C14.0493 15.4664 12.7866 16.1414 11.8718 17.1844C10.9571 18.2275 10.4527 19.5676 10.4527 20.955C10.4527 22.3423 10.9571 23.6824 11.8718 24.7255C12.7866 25.7685 14.0493 26.4435 15.4248 26.6246C16.8003 26.8057 18.1948 26.4805 19.3483 25.7098C20.0491 25.2415 20.6319 24.6282 21.062 23.9185C21.5252 23.1542 22.3948 22.6225 23.258 22.8538V22.8538Z"/>
</mask>
<path d="M23.258 22.8538C24.1213 23.0852 24.6464 23.9819 24.2637 24.7895C23.5745 26.244 22.5012 27.4955 21.1464 28.4007C19.34 29.6077 17.1564 30.1169 15.0024 29.8333C12.8484 29.5497 10.871 28.4928 9.43857 26.8594C8.00611 25.226 7.21631 23.1275 7.21631 20.955C7.21631 18.7824 8.00611 16.684 9.43857 15.0505C10.871 13.4171 12.8484 12.3602 15.0024 12.0766C17.1564 11.793 19.34 12.3022 21.1464 13.5092C22.5012 14.4144 23.5745 15.6659 24.2637 17.1204C24.6464 17.928 24.1213 18.8248 23.258 19.0561V19.0561C22.3948 19.2874 21.5252 18.7558 21.062 17.9914C20.6319 17.2817 20.0491 16.6684 19.3483 16.2001C18.1948 15.4294 16.8003 15.1042 15.4248 15.2853C14.0493 15.4664 12.7866 16.1414 11.8718 17.1844C10.9571 18.2275 10.4527 19.5676 10.4527 20.955C10.4527 22.3423 10.9571 23.6824 11.8718 24.7255C12.7866 25.7685 14.0493 26.4435 15.4248 26.6246C16.8003 26.8057 18.1948 26.4805 19.3483 25.7098C20.0491 25.2415 20.6319 24.6282 21.062 23.9185C21.5252 23.1542 22.3948 22.6225 23.258 22.8538V22.8538Z" fill="black"/>
<path d="M23.258 22.8538C24.1213 23.0852 24.6464 23.9819 24.2637 24.7895C23.5745 26.244 22.5012 27.4955 21.1464 28.4007C19.34 29.6077 17.1564 30.1169 15.0024 29.8333C12.8484 29.5497 10.871 28.4928 9.43857 26.8594C8.00611 25.226 7.21631 23.1275 7.21631 20.955C7.21631 18.7824 8.00611 16.684 9.43857 15.0505C10.871 13.4171 12.8484 12.3602 15.0024 12.0766C17.1564 11.793 19.34 12.3022 21.1464 13.5092C22.5012 14.4144 23.5745 15.6659 24.2637 17.1204C24.6464 17.928 24.1213 18.8248 23.258 19.0561V19.0561C22.3948 19.2874 21.5252 18.7558 21.062 17.9914C20.6319 17.2817 20.0491 16.6684 19.3483 16.2001C18.1948 15.4294 16.8003 15.1042 15.4248 15.2853C14.0493 15.4664 12.7866 16.1414 11.8718 17.1844C10.9571 18.2275 10.4527 19.5676 10.4527 20.955C10.4527 22.3423 10.9571 23.6824 11.8718 24.7255C12.7866 25.7685 14.0493 26.4435 15.4248 26.6246C16.8003 26.8057 18.1948 26.4805 19.3483 25.7098C20.0491 25.2415 20.6319 24.6282 21.062 23.9185C21.5252 23.1542 22.3948 22.6225 23.258 22.8538V22.8538Z" stroke="white" stroke-width="1.11937" mask="url(#path-3-outside-1_133_320)"/>
<path d="M62.6623 18.5358H60.1084C60.0356 18.117 59.9013 17.746 59.7055 17.4227C59.5098 17.095 59.2662 16.8173 58.9749 16.5897C58.6835 16.362 58.3512 16.1913 57.9779 16.0775C57.6092 15.9592 57.2108 15.9 56.7829 15.9C56.0227 15.9 55.3489 16.0912 54.7617 16.4736C54.1744 16.8514 53.7146 17.4068 53.3823 18.1397C53.05 18.8681 52.8838 19.7581 52.8838 20.8097C52.8838 21.8795 53.05 22.7809 53.3823 23.5138C53.7192 24.2422 54.179 24.793 54.7617 25.1663C55.3489 25.535 56.0204 25.7194 56.7761 25.7194C57.1949 25.7194 57.5864 25.6648 57.9506 25.5555C58.3193 25.4417 58.6494 25.2756 58.9407 25.0571C59.2366 24.8385 59.4847 24.5699 59.6851 24.2513C59.8899 23.9326 60.031 23.5684 60.1084 23.1587L62.6623 23.1724C62.5667 23.837 62.3596 24.4607 62.0409 25.0434C61.7268 25.6261 61.3148 26.1405 60.8049 26.5866C60.2951 27.0282 59.6987 27.3742 59.0159 27.6246C58.333 27.8704 57.575 27.9933 56.742 27.9933C55.5128 27.9933 54.4157 27.7088 53.4506 27.1398C52.4855 26.5707 51.7253 25.749 51.1699 24.6747C50.6145 23.6003 50.3368 22.312 50.3368 20.8097C50.3368 19.3029 50.6168 18.0146 51.1767 16.9447C51.7366 15.8704 52.4992 15.0487 53.4643 14.4796C54.4294 13.9106 55.5219 13.6261 56.742 13.6261C57.5204 13.6261 58.2442 13.7353 58.9134 13.9538C59.5826 14.1724 60.179 14.4933 60.7025 14.9167C61.226 15.3355 61.6562 15.8499 61.9931 16.4599C62.3345 17.0654 62.5576 17.7573 62.6623 18.5358ZM64.873 27.8021V17.3135H67.2699V19.0616H67.3791C67.5703 18.4561 67.8981 17.9895 68.3624 17.6617C68.8313 17.3294 69.3662 17.1633 69.9671 17.1633C70.1037 17.1633 70.2562 17.1701 70.4246 17.1837C70.5976 17.1928 70.741 17.2088 70.8548 17.2315V19.5054C70.7501 19.469 70.584 19.4372 70.3564 19.4098C70.1333 19.378 69.917 19.362 69.7076 19.362C69.257 19.362 68.8518 19.4599 68.4922 19.6557C68.1371 19.8469 67.8571 20.1132 67.6522 20.4546C67.4474 20.796 67.345 21.1898 67.345 21.636V27.8021H64.873ZM74.3528 31.7354C74.0159 31.7354 73.704 31.708 73.4172 31.6534C73.135 31.6033 72.9097 31.5442 72.7412 31.4759L73.3148 29.5502C73.6745 29.6549 73.9954 29.705 74.2776 29.7005C74.5599 29.6959 74.808 29.6071 75.0219 29.4341C75.2405 29.2657 75.4248 28.9835 75.5751 28.5874L75.7867 28.0206L71.9832 17.3135H74.6054L77.0227 25.2346H77.132L79.5561 17.3135H82.1851L77.9855 29.0722C77.7898 29.6276 77.5303 30.1033 77.2071 30.4994C76.8839 30.9 76.4878 31.205 76.0189 31.4144C75.5546 31.6284 74.9992 31.7354 74.3528 31.7354ZM83.8956 31.7354V17.3135H86.3266V19.0479H86.47C86.5975 18.793 86.7773 18.5221 87.0094 18.2353C87.2416 17.944 87.5557 17.6959 87.9518 17.491C88.3478 17.2816 88.8532 17.1769 89.4677 17.1769C90.278 17.1769 91.0087 17.384 91.6597 17.7983C92.3152 18.208 92.8342 18.8158 93.2166 19.6215C93.6035 20.4227 93.797 21.4061 93.797 22.5715C93.797 23.7232 93.6081 24.702 93.2302 25.5077C92.8524 26.3135 92.338 26.9281 91.687 27.3514C91.036 27.7748 90.2985 27.9865 89.4746 27.9865C88.8736 27.9865 88.3752 27.8863 87.9791 27.686C87.583 27.4857 87.2644 27.2445 87.0231 26.9622C86.7864 26.6754 86.602 26.4045 86.47 26.1496H86.3676V31.7354H83.8956ZM86.3198 22.5578C86.3198 23.2361 86.4154 23.8302 86.6066 24.3401C86.8023 24.8499 87.0823 25.2483 87.4465 25.535C87.8152 25.8173 88.2613 25.9584 88.7849 25.9584C89.3312 25.9584 89.7887 25.8127 90.1574 25.5214C90.5261 25.2255 90.8038 24.8226 90.9905 24.3127C91.1817 23.7983 91.2773 23.2133 91.2773 22.5578C91.2773 21.9068 91.184 21.3287 90.9973 20.8234C90.8107 20.318 90.533 19.922 90.1642 19.6352C89.7955 19.3484 89.3357 19.205 88.7849 19.205C88.2568 19.205 87.8084 19.3438 87.4396 19.6215C87.0709 19.8992 86.7909 20.2885 86.5997 20.7892C86.4131 21.29 86.3198 21.8795 86.3198 22.5578ZM101.151 17.3135V19.2255H95.1218V17.3135H101.151ZM96.6104 14.8006H99.0823V24.6473C99.0823 24.9797 99.1324 25.2346 99.2325 25.4121C99.3372 25.5851 99.4738 25.7035 99.6422 25.7672C99.8107 25.831 99.9973 25.8628 100.202 25.8628C100.357 25.8628 100.498 25.8514 100.626 25.8287C100.758 25.8059 100.858 25.7854 100.926 25.7672L101.343 27.6997C101.211 27.7452 101.022 27.7953 100.776 27.8499C100.535 27.9046 100.239 27.9364 99.8881 27.9455C99.269 27.9637 98.7113 27.8704 98.2151 27.6656C97.7189 27.4561 97.3251 27.1329 97.0337 26.6959C96.7469 26.2589 96.6058 25.7126 96.6104 25.0571V14.8006ZM107.681 28.007C106.657 28.007 105.769 27.7816 105.018 27.331C104.267 26.8803 103.684 26.2498 103.27 25.4394C102.86 24.6291 102.655 23.6822 102.655 22.5988C102.655 21.5153 102.86 20.5661 103.27 19.7513C103.684 18.9364 104.267 18.3036 105.018 17.8529C105.769 17.4023 106.657 17.1769 107.681 17.1769C108.705 17.1769 109.593 17.4023 110.344 17.8529C111.095 18.3036 111.676 18.9364 112.086 19.7513C112.5 20.5661 112.707 21.5153 112.707 22.5988C112.707 23.6822 112.5 24.6291 112.086 25.4394C111.676 26.2498 111.095 26.8803 110.344 27.331C109.593 27.7816 108.705 28.007 107.681 28.007ZM107.695 26.0267C108.25 26.0267 108.715 25.8742 109.088 25.5692C109.461 25.2596 109.739 24.8454 109.921 24.3264C110.108 23.8074 110.201 23.2293 110.201 22.5919C110.201 21.9501 110.108 21.3696 109.921 20.8507C109.739 20.3271 109.461 19.9106 109.088 19.601C108.715 19.2915 108.25 19.1367 107.695 19.1367C107.126 19.1367 106.652 19.2915 106.274 19.601C105.901 19.9106 105.621 20.3271 105.435 20.8507C105.252 21.3696 105.161 21.9501 105.161 22.5919C105.161 23.2293 105.252 23.8074 105.435 24.3264C105.621 24.8454 105.901 25.2596 106.274 25.5692C106.652 25.8742 107.126 26.0267 107.695 26.0267ZM119.684 27.8021V13.8173H124.928C126.003 13.8173 126.904 14.0176 127.632 14.4182C128.365 14.8188 128.918 15.3696 129.292 16.0707C129.67 16.7672 129.859 17.5593 129.859 18.447C129.859 19.3438 129.67 20.1405 129.292 20.837C128.914 21.5335 128.356 22.0821 127.619 22.4827C126.881 22.8787 125.973 23.0768 124.894 23.0768H121.418V20.9941H124.553C125.181 20.9941 125.695 20.8848 126.096 20.6663C126.497 20.4478 126.793 20.1473 126.984 19.7649C127.179 19.3825 127.277 18.9432 127.277 18.447C127.277 17.9508 127.179 17.5138 126.984 17.1359C126.793 16.7581 126.494 16.4645 126.089 16.2551C125.689 16.0411 125.172 15.9341 124.539 15.9341H122.217V27.8021H119.684ZM134.78 28.0138C134.116 28.0138 133.517 27.8954 132.984 27.6587C132.456 27.4174 132.037 27.0624 131.728 26.5935C131.423 26.1246 131.27 25.5464 131.27 24.859C131.27 24.2672 131.38 23.7778 131.598 23.3909C131.817 23.0039 132.115 22.6944 132.493 22.4622C132.87 22.23 133.296 22.0548 133.77 21.9364C134.248 21.8135 134.742 21.7247 135.251 21.6701C135.866 21.6064 136.364 21.5495 136.747 21.4994C137.129 21.4448 137.407 21.3628 137.58 21.2536C137.757 21.1397 137.846 20.9645 137.846 20.7278V20.6868C137.846 20.1724 137.694 19.774 137.389 19.4918C137.084 19.2095 136.644 19.0684 136.071 19.0684C135.465 19.0684 134.985 19.2004 134.63 19.4645C134.279 19.7285 134.043 20.0404 133.92 20.4L131.612 20.0722C131.794 19.4349 132.094 18.9023 132.513 18.4743C132.932 18.0419 133.444 17.7186 134.05 17.5047C134.655 17.2862 135.324 17.1769 136.057 17.1769C136.562 17.1769 137.065 17.2361 137.566 17.3545C138.067 17.4728 138.525 17.6686 138.939 17.9417C139.353 18.2103 139.685 18.5768 139.936 19.0411C140.191 19.5054 140.318 20.0859 140.318 20.7824V27.8021H137.942V26.3613H137.86C137.71 26.6527 137.498 26.9258 137.225 27.1807C136.956 27.4311 136.617 27.6337 136.207 27.7885C135.802 27.9387 135.326 28.0138 134.78 28.0138ZM135.422 26.1974C135.918 26.1974 136.348 26.0995 136.713 25.9038C137.077 25.7035 137.357 25.4394 137.553 25.1117C137.753 24.7839 137.853 24.4265 137.853 24.0396V22.8036C137.776 22.8674 137.644 22.9265 137.457 22.9812C137.275 23.0358 137.07 23.0836 136.842 23.1246C136.615 23.1655 136.389 23.202 136.166 23.2338C135.943 23.2657 135.75 23.293 135.586 23.3158C135.217 23.3658 134.887 23.4478 134.596 23.5616C134.304 23.6754 134.075 23.8347 133.906 24.0396C133.738 24.2399 133.653 24.4994 133.653 24.8181C133.653 25.2733 133.82 25.617 134.152 25.8492C134.484 26.0813 134.908 26.1974 135.422 26.1974ZM142.804 27.8021V17.3135H145.201V19.0616H145.31C145.501 18.4561 145.829 17.9895 146.293 17.6617C146.762 17.3294 147.297 17.1633 147.898 17.1633C148.034 17.1633 148.187 17.1701 148.355 17.1837C148.528 17.1928 148.672 17.2088 148.786 17.2315V19.5054C148.681 19.469 148.515 19.4372 148.287 19.4098C148.064 19.378 147.848 19.362 147.638 19.362C147.188 19.362 146.783 19.4599 146.423 19.6557C146.068 19.8469 145.788 20.1132 145.583 20.4546C145.378 20.796 145.276 21.1898 145.276 21.636V27.8021H142.804ZM153.258 28.0138C152.594 28.0138 151.995 27.8954 151.462 27.6587C150.934 27.4174 150.515 27.0624 150.206 26.5935C149.901 26.1246 149.748 25.5464 149.748 24.859C149.748 24.2672 149.858 23.7778 150.076 23.3909C150.295 23.0039 150.593 22.6944 150.971 22.4622C151.349 22.23 151.774 22.0548 152.248 21.9364C152.726 21.8135 153.22 21.7247 153.729 21.6701C154.344 21.6064 154.842 21.5495 155.225 21.4994C155.607 21.4448 155.885 21.3628 156.058 21.2536C156.235 21.1397 156.324 20.9645 156.324 20.7278V20.6868C156.324 20.1724 156.172 19.774 155.867 19.4918C155.562 19.2095 155.122 19.0684 154.549 19.0684C153.943 19.0684 153.463 19.2004 153.108 19.4645C152.757 19.7285 152.521 20.0404 152.398 20.4L150.09 20.0722C150.272 19.4349 150.572 18.9023 150.991 18.4743C151.41 18.0419 151.922 17.7186 152.528 17.5047C153.133 17.2862 153.802 17.1769 154.535 17.1769C155.04 17.1769 155.544 17.2361 156.044 17.3545C156.545 17.4728 157.003 17.6686 157.417 17.9417C157.831 18.2103 158.163 18.5768 158.414 19.0411C158.669 19.5054 158.796 20.0859 158.796 20.7824V27.8021H156.42V26.3613H156.338C156.188 26.6527 155.976 26.9258 155.703 27.1807C155.434 27.4311 155.095 27.6337 154.685 27.7885C154.28 27.9387 153.805 28.0138 153.258 28.0138ZM153.9 26.1974C154.396 26.1974 154.827 26.0995 155.191 25.9038C155.555 25.7035 155.835 25.4394 156.031 25.1117C156.231 24.7839 156.331 24.4265 156.331 24.0396V22.8036C156.254 22.8674 156.122 22.9265 155.935 22.9812C155.753 23.0358 155.548 23.0836 155.32 23.1246C155.093 23.1655 154.867 23.202 154.644 23.2338C154.421 23.2657 154.228 23.293 154.064 23.3158C153.695 23.3658 153.365 23.4478 153.074 23.5616C152.783 23.6754 152.553 23.8347 152.384 24.0396C152.216 24.2399 152.132 24.4994 152.132 24.8181C152.132 25.2733 152.298 25.617 152.63 25.8492C152.962 26.0813 153.386 26.1974 153.9 26.1974ZM165.174 27.9865C164.35 27.9865 163.613 27.7748 162.962 27.3514C162.311 26.9281 161.796 26.3135 161.418 25.5077C161.04 24.702 160.852 23.7232 160.852 22.5715C160.852 21.4061 161.043 20.4227 161.425 19.6215C161.812 18.8158 162.333 18.208 162.989 17.7983C163.644 17.384 164.375 17.1769 165.181 17.1769C165.795 17.1769 166.301 17.2816 166.697 17.491C167.093 17.6959 167.407 17.944 167.639 18.2353C167.871 18.5221 168.051 18.793 168.179 19.0479H168.281V13.8173H170.76V27.8021H168.329V26.1496H168.179C168.051 26.4045 167.867 26.6754 167.625 26.9622C167.384 27.2445 167.066 27.4857 166.669 27.686C166.273 27.8863 165.775 27.9865 165.174 27.9865ZM165.864 25.9584C166.387 25.9584 166.833 25.8173 167.202 25.535C167.571 25.2483 167.851 24.8499 168.042 24.3401C168.233 23.8302 168.329 23.2361 168.329 22.5578C168.329 21.8795 168.233 21.29 168.042 20.7892C167.855 20.2885 167.578 19.8992 167.209 19.6215C166.845 19.3438 166.396 19.205 165.864 19.205C165.313 19.205 164.853 19.3484 164.484 19.6352C164.116 19.922 163.838 20.318 163.651 20.8234C163.465 21.3287 163.371 21.9068 163.371 22.5578C163.371 23.2133 163.465 23.7983 163.651 24.3127C163.842 24.8226 164.122 25.2255 164.491 25.5214C164.864 25.8127 165.322 25.9584 165.864 25.9584ZM173.394 27.8021V17.3135H175.866V27.8021H173.394ZM174.637 15.8249C174.245 15.8249 173.908 15.6951 173.626 15.4356C173.344 15.1716 173.203 14.8552 173.203 14.4865C173.203 14.1132 173.344 13.7968 173.626 13.5373C173.908 13.2733 174.245 13.1413 174.637 13.1413C175.033 13.1413 175.37 13.2733 175.647 13.5373C175.93 13.7968 176.071 14.1132 176.071 14.4865C176.071 14.8552 175.93 15.1716 175.647 15.4356C175.37 15.6951 175.033 15.8249 174.637 15.8249ZM186.698 20.0859L184.444 20.3317C184.38 20.1041 184.269 19.8901 184.11 19.6898C183.955 19.4895 183.745 19.3279 183.481 19.205C183.217 19.0821 182.894 19.0206 182.512 19.0206C181.997 19.0206 181.565 19.1322 181.214 19.3552C180.868 19.5783 180.698 19.8674 180.702 20.2224C180.698 20.5275 180.809 20.7756 181.037 20.9668C181.269 21.158 181.651 21.315 182.184 21.4379L183.973 21.8203C184.965 22.0343 185.703 22.3734 186.185 22.8378C186.673 23.3021 186.918 23.9099 186.923 24.661C186.918 25.3211 186.725 25.9038 186.343 26.4091C185.965 26.9099 185.439 27.3014 184.765 27.5836C184.091 27.8659 183.317 28.007 182.443 28.007C181.16 28.007 180.126 27.7384 179.343 27.2012C178.56 26.6595 178.094 25.9061 177.943 24.941L180.354 24.7088C180.463 25.1822 180.695 25.5396 181.05 25.7809C181.405 26.0222 181.868 26.1428 182.437 26.1428C183.024 26.1428 183.495 26.0222 183.85 25.7809C184.21 25.5396 184.39 25.2414 184.39 24.8863C184.39 24.5859 184.273 24.3378 184.041 24.142C183.814 23.9463 183.459 23.796 182.976 23.6913L181.187 23.3158C180.181 23.1064 179.437 22.7536 178.954 22.2574C178.471 21.7566 178.232 21.1238 178.237 20.359C178.232 19.7126 178.408 19.1526 178.763 18.6792C179.122 18.2012 179.621 17.8325 180.258 17.573C180.9 17.3089 181.64 17.1769 182.478 17.1769C183.707 17.1769 184.674 17.4387 185.38 17.9622C186.09 18.4857 186.529 19.1936 186.698 20.0859ZM193.605 28.007C192.553 28.007 191.645 27.7885 190.88 27.3514C190.12 26.9099 189.535 26.2862 189.125 25.4804C188.715 24.6701 188.511 23.7164 188.511 22.6193C188.511 21.5404 188.715 20.5935 189.125 19.7786C189.539 18.9592 190.118 18.3218 190.86 17.8666C191.602 17.4068 192.473 17.1769 193.475 17.1769C194.121 17.1769 194.731 17.2816 195.305 17.491C195.883 17.6959 196.393 18.0146 196.835 18.447C197.281 18.8795 197.631 19.4303 197.886 20.0995C198.141 20.7642 198.269 21.5563 198.269 22.4759V23.2338H189.671V21.5677H195.899C195.894 21.0942 195.792 20.6731 195.592 20.3044C195.391 19.9311 195.111 19.6375 194.752 19.4235C194.397 19.2095 193.982 19.1026 193.509 19.1026C193.004 19.1026 192.56 19.2255 192.177 19.4713C191.795 19.7126 191.497 20.0312 191.283 20.4273C191.074 20.8188 190.967 21.249 190.962 21.7179V23.1724C190.962 23.7824 191.074 24.3059 191.297 24.7429C191.52 25.1754 191.832 25.5077 192.232 25.7399C192.633 25.9675 193.102 26.0813 193.639 26.0813C193.998 26.0813 194.324 26.0313 194.615 25.9311C194.907 25.8264 195.159 25.6739 195.373 25.4736C195.587 25.2733 195.749 25.0252 195.858 24.7293L198.166 24.9888C198.02 25.5988 197.743 26.1314 197.333 26.5866C196.928 27.0373 196.409 27.3879 195.776 27.6382C195.143 27.8841 194.42 28.007 193.605 28.007Z" fill="white"/>
</svg>
