<svg width="24" height="24" viewBox="0 0 24 24" fill="none" xmlns="http://www.w3.org/2000/svg">
<path d="M21.4276 17.7585C21.9995 16.7167 22.3049 15.5497 22.3168 14.3613C22.3288 13.1729 22.0468 12 21.496 10.947C20.9452 9.89387 20.1427 8.99324 19.1598 8.32518C18.1769 7.65712 17.0442 7.24234 15.8623 7.11774C15.4872 6.21412 14.9321 5.39629 14.2308 4.71402C13.5296 4.03176 12.6968 3.49934 11.7832 3.14917C10.8696 2.799 9.89435 2.63841 8.91672 2.67717C7.9391 2.71593 6.97959 2.95323 6.0966 3.37463C5.21361 3.79603 4.42561 4.39271 3.78057 5.12835C3.13553 5.86399 2.64693 6.7232 2.34453 7.65369C2.04213 8.58417 1.93225 9.56646 2.02157 10.5408C2.11089 11.5151 2.39755 12.461 2.8641 13.321L2.27243 15.4011C2.2191 15.5908 2.21725 15.7912 2.26708 15.9819C2.31691 16.1725 2.41662 16.3465 2.55595 16.4858C2.69529 16.6251 2.86922 16.7248 3.05986 16.7747C3.2505 16.8245 3.45097 16.8226 3.64066 16.7693L5.72074 16.1776C6.55768 16.6395 7.47876 16.9287 8.42946 17.0282C8.81458 17.9678 9.39384 18.8156 10.1293 19.5159C10.8648 20.2162 11.7399 20.7532 12.6973 21.0918C13.6547 21.4305 14.6729 21.563 15.6851 21.4809C16.6973 21.3987 17.6807 21.1037 18.571 20.6151L20.6511 21.2068C20.8411 21.2634 21.0428 21.2675 21.235 21.2188C21.4272 21.1702 21.6026 21.0705 21.7428 20.9303C21.883 20.7901 21.9827 20.6147 22.0313 20.4225C22.08 20.2303 22.0759 20.0286 22.0193 19.8386L21.4276 17.7585ZM5.7947 15.022C5.74105 15.0215 5.68776 15.0309 5.63754 15.0498L3.33558 15.7062L3.99196 13.4042C4.01504 13.3321 4.02203 13.2559 4.01245 13.1808C4.00286 13.1057 3.97694 13.0337 3.9365 12.9697C3.17999 11.693 2.91549 10.1841 3.19262 8.72623C3.46976 7.26835 4.26949 5.96175 5.44168 5.0517C6.61387 4.14165 8.07792 3.69074 9.559 3.7836C11.0401 3.87647 12.4363 4.50672 13.4857 5.55606C14.535 6.6054 15.1653 8.00166 15.2581 9.48274C15.351 10.9638 14.9001 12.4279 13.99 13.6001C13.08 14.7722 11.7734 15.572 10.3155 15.8491C8.85764 16.1263 7.34873 15.8617 6.07204 15.1052C5.98961 15.0512 5.89326 15.0223 5.7947 15.022ZM20.2998 17.8417L20.9562 20.1437L18.6542 19.4873C18.5821 19.4642 18.5059 19.4572 18.4308 19.4668C18.3557 19.4764 18.2837 19.5023 18.2197 19.5427C17.5003 19.9682 16.7013 20.2415 15.872 20.3459C15.0428 20.4502 14.2009 20.3833 13.3986 20.1494C12.5962 19.9154 11.8504 19.5194 11.2071 18.9857C10.5639 18.452 10.037 17.7921 9.65902 17.0467C11.4846 16.9248 13.1959 16.1145 14.447 14.7793C15.698 13.4442 16.3955 11.6839 16.3985 9.8542C16.3964 9.32861 16.3375 8.80477 16.2228 8.29183C17.1879 8.4731 18.095 8.88425 18.8675 9.49048C19.6399 10.0967 20.2549 10.8802 20.6604 11.7745C21.0658 12.6688 21.2498 13.6477 21.1966 14.6282C21.1435 15.6086 20.8549 16.5619 20.3552 17.4072C20.3148 17.4712 20.2889 17.5432 20.2793 17.6183C20.2697 17.6934 20.2767 17.7696 20.2998 17.8417Z" fill="#959799"/>
</svg>
