<svg width="19" height="18" viewBox="0 0 19 18" fill="none" xmlns="http://www.w3.org/2000/svg">
<g clip-path="url(#clip0_714_801)">
<path d="M9.85449 0.966166C7.74588 0.966166 5.72364 1.80381 4.23262 3.29482C2.74161 4.78583 1.90397 6.80808 1.90397 8.91669C1.90397 11.0253 2.74161 13.0475 4.23262 14.5386C5.72364 16.0296 7.74588 16.8672 9.85449 16.8672C11.9631 16.8672 13.9853 16.0296 15.4764 14.5386C16.9674 13.0475 17.805 11.0253 17.805 8.91669C17.805 6.80808 16.9674 4.78583 15.4764 3.29482C13.9853 1.80381 11.9631 0.966166 9.85449 0.966166ZM10.0394 2.44797C10.8262 2.47046 11.6028 2.63632 12.331 2.93794C13.1161 3.26315 13.8295 3.73983 14.4304 4.34075C15.0314 4.94167 15.508 5.65507 15.8332 6.44021C16.1585 7.22535 16.3258 8.06686 16.3258 8.91669C16.3258 9.76652 16.1585 10.608 15.8332 11.3932C15.508 12.1783 15.0314 12.8917 14.4304 13.4926C13.8295 14.0935 13.1161 14.5702 12.331 14.8954C11.6028 15.197 10.8262 15.3629 10.0394 15.3854V2.44797Z" fill="#B3B3B3" stroke="#B3B3B3" stroke-width="0.369792"/>
</g>
<defs>
<clipPath id="clip0_714_801">
<rect x="0.979492" y="0.041687" width="17.75" height="17.75" rx="8.875" fill="white"/>
</clipPath>
</defs>
</svg>
