<svg width="82" height="30" viewBox="0 0 82 30" fill="none" xmlns="http://www.w3.org/2000/svg">
<rect x="0.71875" y="0.28125" width="80.9062" height="29.5833" rx="9.61458" fill="white"/>
<path d="M22.4663 14.212H22.6512V14.0271V10.3274H24.617V14.0271V14.212H24.8019H28.3915V15.934H24.8019H24.617V16.1189V19.8187H22.6512V16.1189V15.934H22.4663H18.9002V14.212H22.4663Z" fill="black" stroke="white" stroke-width="0.369792"/>
<path d="M51.0125 12.1183V18.5729H50.1175L46.8366 13.8391H46.7767V18.5729H45.8029V12.1183H46.7042L49.9882 16.8584H50.0481V12.1183H51.0125ZM52.4331 18.5729V12.1183H56.4798V12.9567H53.407V14.9233H56.2687V15.7585H53.407V17.7345H56.5176V18.5729H52.4331ZM59.0445 18.5729L57.2543 12.1183H58.2786L59.5361 17.1168H59.596L60.9039 12.1183H61.9187L63.2267 17.12H63.2866L64.5409 12.1183H65.5683L63.7751 18.5729H62.7949L61.4365 13.7383H61.3861L60.0278 18.5729H59.0445Z" fill="black"/>
</svg>
