<svg width="31" height="31" viewBox="0 0 31 31" fill="none" xmlns="http://www.w3.org/2000/svg">
<rect x="1.26579" y="1.34904" width="28.8438" height="28.8438" rx="9.24479" fill="white" fill-opacity="0.2"/>
<path d="M13.158 19.7613C13.2117 19.8151 13.2754 19.8578 13.3456 19.8869C13.4158 19.916 13.4911 19.931 13.5671 19.931C13.6431 19.931 13.7183 19.916 13.7885 19.8869C13.8587 19.8578 13.9225 19.8151 13.9762 19.7613L17.8636 15.8738C17.9065 15.8311 17.9404 15.7803 17.9636 15.7244C17.9868 15.6684 17.9988 15.6085 17.9988 15.548C17.9988 15.4874 17.9868 15.4275 17.9636 15.3716C17.9404 15.3156 17.9065 15.2649 17.8636 15.2221L13.9762 11.3347C13.7497 11.1082 13.3845 11.1082 13.158 11.3347C12.9315 11.5612 12.9315 11.9263 13.158 12.1528L16.5508 15.5457L13.1534 18.9431C12.9315 19.1696 12.9315 19.5348 13.158 19.7613Z" fill="#959799"/>
<rect x="1.26579" y="1.34904" width="28.8438" height="28.8438" rx="9.24479" stroke="#959799" stroke-width="0.739583"/>
</svg>
