<svg width="25" height="24" viewBox="0 0 25 24" fill="none" xmlns="http://www.w3.org/2000/svg">
<path d="M12.7915 21.9341C13.4022 21.9349 13.998 21.7454 14.496 21.3919C14.994 21.0385 15.3695 20.5386 15.5704 19.9619H10.0126C10.2135 20.5386 10.589 21.0385 11.087 21.3919C11.585 21.7454 12.1808 21.9349 12.7915 21.9341V21.9341ZM19.6943 14.6231V10.1008C19.6943 6.92848 17.5396 4.25612 14.6207 3.45244C14.3318 2.72469 13.6258 2.21191 12.7915 2.21191C11.9573 2.21191 11.2512 2.72469 10.9623 3.45244C8.04338 4.25711 5.88873 6.92848 5.88873 10.1008V14.6231L4.20544 16.3064C4.11369 16.3978 4.04092 16.5065 3.99134 16.6261C3.94175 16.7458 3.91632 16.8741 3.9165 17.0036V17.9897C3.9165 18.2512 4.0204 18.502 4.20533 18.687C4.39026 18.8719 4.64108 18.9758 4.90262 18.9758H20.6804C20.9419 18.9758 21.1927 18.8719 21.3777 18.687C21.5626 18.502 21.6665 18.2512 21.6665 17.9897V17.0036C21.6667 16.8741 21.6413 16.7458 21.5917 16.6261C21.5421 16.5065 21.4693 16.3978 21.3776 16.3064L19.6943 14.6231Z" fill="#959799"/>
<circle cx="18.3385" cy="5.04692" r="2.58854" fill="#F8961C"/>
</svg>
