<svg width="16" height="16" viewBox="0 0 16 16" fill="none" xmlns="http://www.w3.org/2000/svg">
<path d="M12.3615 11.8234L14.167 13.628C14.2512 13.7152 14.2978 13.8319 14.2967 13.9531C14.2957 14.0743 14.2471 14.1903 14.1614 14.276C14.0757 14.3617 13.9597 14.4103 13.8385 14.4114C13.7173 14.4124 13.6006 14.3658 13.5134 14.2816L11.7079 12.4761C10.528 13.487 9.00249 14.0016 7.4514 13.9119C5.90031 13.8222 4.44424 13.1353 3.38872 11.9952C2.3332 10.8551 1.76028 9.35054 1.79018 7.79715C1.82008 6.24376 2.45048 4.76233 3.54909 3.66372C4.64771 2.5651 6.12914 1.9347 7.68253 1.9048C9.23592 1.8749 10.7405 2.44782 11.8806 3.50334C13.0207 4.55886 13.7076 6.01494 13.7973 7.56602C13.8869 9.11711 13.3723 10.6426 12.3615 11.8225V11.8234ZM7.79825 12.9975C9.14678 12.9975 10.4401 12.4618 11.3936 11.5083C12.3472 10.5547 12.8829 9.26141 12.8829 7.91288C12.8829 6.56435 12.3472 5.27105 11.3936 4.3175C10.4401 3.36394 9.14678 2.82824 7.79825 2.82824C6.44972 2.82824 5.15643 3.36394 4.20287 4.3175C3.24932 5.27105 2.71362 6.56435 2.71362 7.91288C2.71362 9.26141 3.24932 10.5547 4.20287 11.5083C5.15643 12.4618 6.44972 12.9975 7.79825 12.9975Z" fill="#A2A3A4"/>
</svg>
