<svg width="19" height="18" viewBox="0 0 19 18" fill="none" xmlns="http://www.w3.org/2000/svg">
<path d="M9.63242 6.1429C8.88843 6.1429 8.17491 6.4351 7.64883 6.95522C7.12275 7.47534 6.8272 8.18078 6.8272 8.91634C6.8272 9.6519 7.12275 10.3573 7.64883 10.8775C8.17491 11.3976 8.88843 11.6898 9.63242 11.6898C10.3764 11.6898 11.0899 11.3976 11.616 10.8775C12.1421 10.3573 12.4376 9.6519 12.4376 8.91634C12.4376 8.18078 12.1421 7.47534 11.616 6.95522C11.0899 6.4351 10.3764 6.1429 9.63242 6.1429ZM7.76227 8.91634C7.76227 8.42596 7.95931 7.95567 8.31003 7.60893C8.66075 7.26218 9.13643 7.06738 9.63242 7.06738C10.1284 7.06738 10.6041 7.26218 10.9548 7.60893C11.3055 7.95567 11.5026 8.42596 11.5026 8.91634C11.5026 9.40671 11.3055 9.877 10.9548 10.2237C10.6041 10.5705 10.1284 10.7653 9.63242 10.7653C9.13643 10.7653 8.66075 10.5705 8.31003 10.2237C7.95931 9.877 7.76227 9.40671 7.76227 8.91634ZM7.94704 16.1154C8.50023 16.246 9.06651 16.3118 9.63504 16.3118C10.2023 16.3112 10.7676 16.2449 11.3193 16.1143C11.4643 16.0798 11.5951 16.0019 11.6937 15.8913C11.7924 15.7806 11.8542 15.6426 11.8706 15.496L11.997 14.3604C12.0184 14.1573 12.1124 13.9685 12.2621 13.8278C12.4118 13.6871 12.6073 13.6039 12.8135 13.5931C12.9508 13.5872 13.0873 13.6127 13.213 13.6671L14.2629 14.1223C14.3542 14.1629 14.453 14.1841 14.5531 14.1848C14.6532 14.1854 14.7523 14.1654 14.8442 14.126C14.9365 14.0871 15.0192 14.0294 15.0873 13.9566C15.8593 13.1339 16.4356 12.1511 16.7741 11.08C16.8185 10.9379 16.8171 10.7857 16.7702 10.6444C16.7233 10.5031 16.6332 10.3797 16.5123 10.2912L15.5795 9.61081C15.4684 9.53103 15.378 9.42637 15.3156 9.30541C15.2533 9.18445 15.2208 9.05062 15.2208 8.91486C15.2208 8.7791 15.2533 8.64526 15.3156 8.5243C15.378 8.40334 15.4684 8.29869 15.5795 8.21891L16.5093 7.53997C16.6305 7.45132 16.7208 7.32759 16.7678 7.18594C16.8147 7.04428 16.8159 6.89171 16.7712 6.74936C16.4325 5.6781 15.8555 4.69543 15.0824 3.87349C14.98 3.76525 14.8461 3.69112 14.6993 3.66131C14.5524 3.63151 14.3998 3.6475 14.2625 3.70708L13.213 4.16414C13.1045 4.21259 12.9863 4.2381 12.8667 4.2381C12.6512 4.23768 12.4435 4.15865 12.2834 4.01616C12.1232 3.87367 12.0219 3.67776 11.9989 3.46598L11.8717 2.33442C11.8555 2.1859 11.7926 2.04613 11.692 1.93467C11.5914 1.82321 11.4581 1.74563 11.3107 1.7128C10.7618 1.59164 10.2016 1.52732 9.63915 1.52087C9.0729 1.52734 8.50884 1.59178 7.95602 1.71317C7.80879 1.74581 7.67556 1.82314 7.57496 1.93433C7.47437 2.04552 7.41144 2.18502 7.39498 2.33331L7.26781 3.46561C7.24381 3.67773 7.14153 3.87364 6.98055 4.01586C6.81626 4.15384 6.60919 4.23213 6.3937 4.23773C6.27484 4.23765 6.1573 4.21323 6.04847 4.16599L5.00118 3.70893C4.86346 3.64881 4.71022 3.6326 4.56275 3.66256C4.41528 3.69251 4.28091 3.76714 4.17832 3.87608C3.40634 4.6982 2.83 5.68052 2.49144 6.75121C2.44672 6.8935 2.4479 7.04603 2.49481 7.18763C2.54173 7.32924 2.63206 7.45289 2.75327 7.54145L3.68385 8.22039C3.85009 8.34186 3.96757 8.5175 4.01555 8.71629C4.06352 8.91509 4.03891 9.12425 3.94605 9.30684C3.8843 9.42791 3.79461 9.53292 3.68423 9.61339L2.75289 10.2934C2.63179 10.3819 2.54152 10.5054 2.49461 10.6469C2.4477 10.7884 2.44646 10.9408 2.49107 11.0829C2.82903 12.1547 3.40542 13.138 4.17795 13.9607C4.28 14.0696 4.41387 14.1442 4.5609 14.1743C4.70793 14.2044 4.8608 14.1884 4.99819 14.1286L6.05221 13.6711C6.16105 13.6238 6.2785 13.5994 6.39744 13.5994H6.40043C6.61506 13.5997 6.8221 13.678 6.98211 13.8194C7.14213 13.9608 7.24394 14.1555 7.26818 14.3663L7.3946 15.4968C7.41107 15.6436 7.47296 15.7818 7.57184 15.8925C7.67071 16.0032 7.80174 16.0811 7.94704 16.1154ZM10.9632 15.2483C10.088 15.4332 9.18284 15.4332 8.30761 15.2483L8.1939 14.2639C8.14447 13.8271 7.93412 13.4236 7.60299 13.1303C7.27186 12.837 6.84313 12.6745 6.39856 12.6738H6.39482C6.14688 12.6728 5.90147 12.7232 5.67444 12.8217L4.75956 13.2185C4.16608 12.5567 3.71326 11.7837 3.42802 10.9454L4.23779 10.3537C4.46599 10.1874 4.65148 9.97033 4.77931 9.72012C4.90713 9.46991 4.97373 9.19351 4.97373 8.91319C4.97373 8.63288 4.90713 8.35648 4.77931 8.10627C4.65148 7.85606 4.46599 7.63903 4.23779 7.47267L3.42839 6.881C3.71417 6.04365 4.16709 5.27155 4.76031 4.61048L5.66995 5.0069C5.89735 5.10661 6.14344 5.15789 6.3922 5.15741H6.39594C6.84156 5.15649 7.27126 4.99344 7.60307 4.69935C7.93488 4.40527 8.14559 4.00072 8.19503 3.56286L8.30723 2.57922C8.74604 2.49229 9.19204 2.44574 9.63953 2.44018C10.0835 2.44572 10.526 2.49195 10.9614 2.57885L11.0736 3.56212C11.1216 3.99996 11.3313 4.40487 11.6626 4.69926C11.9939 4.99364 12.4235 5.15678 12.8689 5.15741C13.1201 5.16327 13.3693 5.11137 13.5968 5.00579L14.5057 4.60974C15.0992 5.27076 15.5523 6.04303 15.838 6.88063L15.0312 7.46971C14.8013 7.63533 14.6144 7.85229 14.4854 8.10291C14.3565 8.35353 14.2893 8.63073 14.2893 8.9119C14.2893 9.19307 14.3565 9.47027 14.4854 9.72089C14.6144 9.97151 14.8013 10.1885 15.0312 10.3541L15.8409 10.9458C15.555 11.783 15.1022 12.555 14.5094 13.2163L13.5968 12.8206C13.3369 12.7066 13.0536 12.655 12.7697 12.67C12.4859 12.6849 12.2097 12.766 11.9636 12.9067C11.7175 13.0473 11.5085 13.2434 11.3537 13.4791C11.1989 13.7148 11.1026 13.9833 11.0728 14.2628L10.9632 15.2483Z" fill="#B3B3B3"/>
</svg>
