<svg width="19" height="19" viewBox="0 0 19 19" fill="none" xmlns="http://www.w3.org/2000/svg">
<g clip-path="url(#clip0_714_788)">
<path d="M18.464 11.3131C17.2782 16.0701 12.4586 18.9618 7.7084 17.776C2.95126 16.5902 0.0595334 11.7708 1.24539 7.02064C2.43117 2.26364 7.24378 -0.628088 12.0009 0.557764C16.7511 1.73661 19.6498 6.55601 18.464 11.3131Z" fill="url(#paint0_linear_714_788)"/>
<path d="M14.0803 8.06083C14.2536 6.88212 13.3592 6.24423 12.125 5.82128L12.5271 4.21962L11.5564 3.97694L11.1682 5.537C10.9116 5.4746 10.6481 5.41219 10.3847 5.35673L10.7729 3.78973L9.80225 3.54706L9.40703 5.14178C9.19209 5.09325 8.98408 5.04471 8.78301 4.99618V4.98925L7.43789 4.65643L7.18135 5.69647C7.18135 5.69647 7.90244 5.86288 7.88857 5.86981C8.28379 5.96688 8.35312 6.23036 8.33926 6.43837L7.88164 8.2619C7.90937 8.26884 7.94404 8.27577 7.98564 8.29657C7.95098 8.28964 7.91631 8.2827 7.88164 8.26884L7.24375 10.8204C7.19521 10.9383 7.07041 11.1185 6.8 11.0492C6.80693 11.0631 6.09277 10.8759 6.09277 10.8759L5.60742 11.9922L6.87627 12.3111C7.11201 12.3735 7.34082 12.429 7.56963 12.4914L7.16748 14.1069L8.13818 14.3496L8.54033 12.7479C8.80381 12.8173 9.06729 12.8866 9.31689 12.949L8.92168 14.5437L9.89238 14.7864L10.2945 13.1709C11.9586 13.4829 13.2066 13.3581 13.7267 11.8535C14.1496 10.6471 13.7059 9.94676 12.8322 9.48915C13.4771 9.34354 13.9555 8.92059 14.0803 8.06083V8.06083ZM11.8546 11.1809C11.5564 12.3874 9.51797 11.7356 8.85928 11.5692L9.39316 9.42675C10.0519 9.59315 12.1735 9.91903 11.8546 11.1809ZM12.1597 8.04003C11.8823 9.14247 10.1905 8.58085 9.64277 8.44218L10.1281 6.50077C10.6759 6.63944 12.4439 6.89598 12.1597 8.04003Z" fill="white"/>
</g>
<defs>
<linearGradient id="paint0_linear_714_788" x1="9.84969" y1="0.28761" x2="9.84969" y2="18.0401" gradientUnits="userSpaceOnUse">
<stop stop-color="#F9AA4B"/>
<stop offset="1" stop-color="#F7931A"/>
</linearGradient>
<clipPath id="clip0_714_788">
<rect width="17.75" height="17.75" fill="white" transform="translate(0.979492 0.291748)"/>
</clipPath>
</defs>
</svg>
